<?xml version="1.0" standalone="no"?><!DOCTYPE svg PUBLIC "-//W3C//DTD SVG 1.1//EN" "http://www.w3.org/Graphics/SVG/1.1/DTD/svg11.dtd"><svg t="1650565654690" class="icon" viewBox="0 0 1024 1024" version="1.1" xmlns="http://www.w3.org/2000/svg" p-id="1280" xmlns:xlink="http://www.w3.org/1999/xlink" width="200" height="200"><defs><style type="text/css">@font-face { font-family: feedback-iconfont; src: url("//at.alicdn.com/t/font_1031158_u69w8yhxdu.woff2?t=1630033759944") format("woff2"), url("//at.alicdn.com/t/font_1031158_u69w8yhxdu.woff?t=1630033759944") format("woff"), url("//at.alicdn.com/t/font_1031158_u69w8yhxdu.ttf?t=1630033759944") format("truetype"); }
</style></defs><path d="M901.632 454.144h-331.776V122.368c0-14.336-11.264-25.6-25.6-25.6H479.744c-14.336 0-25.6 11.264-25.6 25.6v331.776H122.368c-14.336 0-25.6 11.264-25.6 25.6v65.024c0 14.336 11.264 25.6 25.6 25.6h331.776v331.776c0 14.336 11.264 25.6 25.6 25.6h65.024c14.336 0 25.6-11.264 25.6-25.6v-331.776h331.776c14.336 0 25.6-11.264 25.6-25.6V479.744c-0.512-14.336-11.776-25.6-26.112-25.6z" fill="#666666" p-id="1281"></path></svg>