<?xml version="1.0" standalone="no"?><!DOCTYPE svg PUBLIC "-//W3C//DTD SVG 1.1//EN" "http://www.w3.org/Graphics/SVG/1.1/DTD/svg11.dtd"><svg t="1651152412918" class="icon" viewBox="0 0 1024 1024" version="1.1" xmlns="http://www.w3.org/2000/svg" p-id="10256" xmlns:xlink="http://www.w3.org/1999/xlink" width="200" height="200"><defs><style type="text/css">@font-face { font-family: feedback-iconfont; src: url("//at.alicdn.com/t/font_1031158_u69w8yhxdu.woff2?t=1630033759944") format("woff2"), url("//at.alicdn.com/t/font_1031158_u69w8yhxdu.woff?t=1630033759944") format("woff"), url("//at.alicdn.com/t/font_1031158_u69w8yhxdu.ttf?t=1630033759944") format("truetype"); }
</style></defs><path d="M451.047619 772.87619l-70.704762 70.704762c-26.819048 26.819048-60.952381 41.447619-99.961905 41.447619-36.571429 0-73.142857-14.628571-99.961904-41.447619-56.07619-53.638095-56.07619-146.285714 0-199.923809l168.228571-168.228572c26.819048-26.819048 60.952381-41.447619 99.961905-41.447619 36.571429 0 73.142857 14.628571 99.961905 41.447619 21.942857 21.942857 58.514286 21.942857 82.895238 0 21.942857-21.942857 21.942857-58.514286 0-82.895238-48.761905-48.761905-112.152381-75.580952-180.419048-75.580952-68.266667 0-134.095238 26.819048-180.419048 75.580952l-170.666666 168.228572c-48.761905 48.761905-75.580952 112.152381-75.580953 180.419047 0 68.266667 26.819048 134.095238 75.580953 180.419048C199.92381 1024 360.838095 1024 463.238095 924.038095l70.704762-70.704762c21.942857-21.942857 21.942857-58.514286 0-82.895238-24.380952-17.066667-60.952381-17.066667-82.895238 2.438095z m0 0" p-id="10257" fill="#666666"></path><path d="M924.038095 99.961905c-48.761905-48.761905-112.152381-75.580952-180.419047-75.580953-68.266667 0-134.095238 26.819048-180.419048 75.580953l-73.142857 70.704762c-21.942857 21.942857-21.942857 58.514286 0 82.895238 21.942857 21.942857 58.514286 21.942857 82.895238 0l70.704762-70.704762c26.819048-26.819048 60.952381-41.447619 99.961905-41.447619 36.571429 0 73.142857 14.628571 99.961904 41.447619 56.07619 53.638095 56.07619 146.285714 0 199.923809l-168.228571 168.228572c-26.819048 26.819048-60.952381 41.447619-99.961905 41.447619-36.571429 0-73.142857-14.628571-99.961905-41.447619-21.942857-21.942857-58.514286-21.942857-82.895238 0-21.942857 21.942857-21.942857 53.638095-2.438095 75.580952l2.438095 2.438095c99.961905 99.961905 263.314286 99.961905 363.276191 0l168.228571-168.228571c99.961905-97.52381 99.961905-263.314286 0-360.838095z m0 0" p-id="10258" fill="#666666"></path></svg>