<?xml version="1.0" standalone="no"?><!DOCTYPE svg PUBLIC "-//W3C//DTD SVG 1.1//EN" "http://www.w3.org/Graphics/SVG/1.1/DTD/svg11.dtd"><svg t="1642035797623" class="icon" viewBox="0 0 1024 1024" version="1.1" xmlns="http://www.w3.org/2000/svg" p-id="28476" xmlns:xlink="http://www.w3.org/1999/xlink" width="200" height="200"><defs><style type="text/css"></style></defs><path d="M512 2C230.3 2 2 230.3 2 512s228.3 510 510 510 510-228.3 510-510S793.7 2 512 2z" fill="#aaaaaa" p-id="28477" data-spm-anchor-id="a313x.7781069.0.i47" class=""></path><path d="M517.9 746.7c0 20.8-23.4 32.9-40.3 20.8l-132-115h-98.5c-19.4 0-35.2-15.8-35.2-35.2V406.9c0-19.4 15.8-35.5 35.2-35.5h98.1l132.3-115.1c16.9-12.1 40.3 0.1 40.4 20.9v469.5zM616 608.5c-2.8 1-5.7 1.5-8.5 1.5-10.5 0-20.4-6.5-24.1-17.1-4.7-13.3 2.3-27.9 15.6-32.6 20.4-7.2 34.1-26.6 34.1-48.2 0-21.4-13.5-40.7-33.5-48-13.3-4.9-20.1-19.5-15.2-32.8 4.9-13.3 19.5-20.1 32.8-15.2 40.1 14.7 67.1 53.2 67.1 96.1-0.1 43.2-27.5 81.9-68.3 96.3z m76.8 72c-2.8 1-5.7 1.5-8.5 1.5-10.5 0-20.4-6.5-24.1-17.1-4.7-13.3 2.3-27.9 15.6-32.6 50.9-18 85.1-66.4 85.1-120.4 0-53.4-33.7-101.6-83.8-120-13.3-4.8-20.1-19.5-15.2-32.8s19.5-20.1 32.8-15.2c70.2 25.7 117.4 93.2 117.4 167.9-0.1 75.7-48 143.5-119.3 168.7z" fill="#2e2e2e" p-id="28478" data-spm-anchor-id="a313x.7781069.0.i46" class="selected"></path></svg>