<?xml version="1.0" standalone="no"?><!DOCTYPE svg PUBLIC "-//W3C//DTD SVG 1.1//EN" "http://www.w3.org/Graphics/SVG/1.1/DTD/svg11.dtd"><svg t="1648556772650" class="icon" viewBox="0 0 1024 1024" version="1.1" xmlns="http://www.w3.org/2000/svg" p-id="1282" xmlns:xlink="http://www.w3.org/1999/xlink" width="200" height="200"><defs><style type="text/css">@font-face { font-family: feedback-iconfont; src: url("//at.alicdn.com/t/font_1031158_u69w8yhxdu.woff2?t=1630033759944") format("woff2"), url("//at.alicdn.com/t/font_1031158_u69w8yhxdu.woff?t=1630033759944") format("woff"), url("//at.alicdn.com/t/font_1031158_u69w8yhxdu.ttf?t=1630033759944") format("truetype"); }
</style></defs><path d="M432 176v672c0 26.5-21.5 48-48 48H224c-26.5 0-48-21.5-48-48V176c0-26.5 21.5-48 48-48h160c26.5 0 48 21.5 48 48zM848 176v672c0 26.5-21.5 48-48 48H640c-26.5 0-48-21.5-48-48V176c0-26.5 21.5-48 48-48h160c26.5 0 48 21.5 48 48z" p-id="1283" fill="#ffffff"></path></svg>