<?xml version="1.0" standalone="no"?><!DOCTYPE svg PUBLIC "-//W3C//DTD SVG 1.1//EN" "http://www.w3.org/Graphics/SVG/1.1/DTD/svg11.dtd"><svg t="1642088177010" class="icon" viewBox="0 0 1026 1024" version="1.1" xmlns="http://www.w3.org/2000/svg" p-id="130250" xmlns:xlink="http://www.w3.org/1999/xlink" width="200.390625" height="200"><defs><style type="text/css"></style></defs><path d="M1020.939085 952.695624l-321.663808-321.663808a368.239883 368.239883 0 0 0 76.910415-226.433001c0-99.352896-38.754676-192.469812-108.865407-262.686239a368.87405 368.87405 0 0 0-262.72147-108.865407c-99.21197 0-192.575507 38.754676-262.686239 108.865407a368.627429 368.627429 0 0 0-108.865407 262.686239c0 99.21197 38.754676 192.610738 108.865407 262.72147a368.627429 368.627429 0 0 0 262.686239 108.865407 368.521735 368.521735 0 0 0 226.292075-76.804721l321.663808 321.558114a10.18191 10.18191 0 0 0 14.374462 0l54.009925-53.904231a10.18191 10.18191 0 0 0 0-14.33923z m-420.135916-351.892455a275.968523 275.968523 0 0 1-196.204354 81.243893 275.968523 275.968523 0 0 1-196.169123-81.243893 275.968523 275.968523 0 0 1-81.279124-196.204354c0-74.056662 28.889849-143.779847 81.279124-196.169123a275.968523 275.968523 0 0 1 196.169123-81.279124c74.091894 0 143.815079 28.748923 196.239585 81.279124a275.968523 275.968523 0 0 1 81.208662 196.169123c0 74.091894-28.854618 143.815079-81.243893 196.239585z" p-id="130251" fill="#666666"></path></svg>