<?xml version="1.0" standalone="no"?><!DOCTYPE svg PUBLIC "-//W3C//DTD SVG 1.1//EN" "http://www.w3.org/Graphics/SVG/1.1/DTD/svg11.dtd"><svg t="1642035702013" class="icon" viewBox="0 0 1024 1024" version="1.1" xmlns="http://www.w3.org/2000/svg" p-id="28044" xmlns:xlink="http://www.w3.org/1999/xlink" width="200" height="200"><defs><style type="text/css"></style></defs><path d="M512 2C230.3 2 2 230.3 2 512s228.3 510 510 510 510-228.3 510-510S793.7 2 512 2z" fill="#aaaaaa" p-id="28045" data-spm-anchor-id="a313x.7781069.0.i44" class=""></path><path d="M380.9 300.1c0-74.8 58.9-136 131.1-136.1h-0.1 0c72.2 0 131.1 61.2 131.1 136.1v194.6c0 74.8-58.9 136-131.1 136.1h0.1-0.1 0.1c-72.2 0-131.1-61.3-131.1-136.2V300.1z m276.9 505.6c16.1 0 29.2 13 29.2 29.2S674 864 657.8 864H366.2c-16.1 0-29.2-13-29.2-29.2s13-29.2 29.2-29.2h116.3V731c-121.4-14.3-203.8-117.6-203.8-260.8 0-16.1 13-29.2 29.2-29.2s29.2 13 29.2 29.2c0 101.6 54.1 204.2 175 204.2s175-102.5 175-204.2c0-16.1 13-29.2 29.2-29.2s29.2 13 29.2 29.2c0 143.5-82.7 246.8-204.5 260.9v74.5h116.8v0.1z" fill="#2e2e2e" p-id="28046" data-spm-anchor-id="a313x.7781069.0.i41" class="selected"></path></svg>