<?xml version="1.0" standalone="no"?><!DOCTYPE svg PUBLIC "-//W3C//DTD SVG 1.1//EN" "http://www.w3.org/Graphics/SVG/1.1/DTD/svg11.dtd"><svg t="1642036115235" class="icon" viewBox="0 0 1024 1024" version="1.1" xmlns="http://www.w3.org/2000/svg" p-id="33159" xmlns:xlink="http://www.w3.org/1999/xlink" width="200" height="200"><defs><style type="text/css"></style></defs><path d="M511.301994 357.601415l82.994459 83.017937-214.724939 214.664214-82.994459-83.017937 214.724939-214.664214Z" p-id="33160" data-spm-anchor-id="a313x.7781069.0.i60" class="" fill="#2e2e2e"></path><path d="M269.137702 599.606468c-18.279489 18.257702-22.397277 46.798979-10.109277 69.479489l3.987064 7.276936-40.32817 40.306383c-1.634043 1.65583-2.527319 3.878128-2.527319 6.165787 0 2.331234 0.893277 4.553532 2.527319 6.209362 3.31166 3.289872 9.063489 3.289872 12.375149 0.043574l40.306383-40.371745 7.276936 3.987064c8.58417 4.640681 18.279489 7.059064 28.018383 7.059064 15.708596 0 30.414979-6.078638 41.461106-17.146553l11.634383-11.65617-83.052936-83.031149L269.137702 599.606468z" p-id="33161" data-spm-anchor-id="a313x.7781069.0.i61" class="" fill="#2e2e2e"></path><path d="M551.182621 317.634423l83.013523 83.060496-24.193874 24.180191-83.013523-83.060496 24.193874-24.180191Z" p-id="33162" data-spm-anchor-id="a313x.7781069.0.i62" class="" fill="#2e2e2e"></path><path d="M512 0C229.223489 0 0 229.223489 0 512S229.223489 1024 512 1024C794.776511 1024 1024 794.776511 1024 512 1024 229.223489 794.776511 0 512 0zM460.974298 767.498894l-75.100596 0c-6.100426 0-11.067915-4.945702-11.067915-11.067915s4.967489-11.067915 11.067915-11.067915l75.100596 0c6.122213 0 11.089702 4.945702 11.089702 11.067915S467.096511 767.498894 460.974298 767.498894zM704.250553 767.498894l-184.581447 0c-6.100426 0-11.089702-4.945702-11.089702-11.067915s4.989277-11.067915 11.089702-11.067915l184.581447 0c6.122213 0 11.089702 4.945702 11.089702 11.067915S710.372766 767.498894 704.250553 767.498894zM715.165957 350.883404 367.790298 698.302638c-15.251064 15.272851-35.556766 23.660936-57.126128 23.660936-10.610383 0-21.220766-2.091574-31.003234-6.144l-28.933447 28.955234c-5.838979 5.838979-13.595234 9.019915-21.852596 9.019915-8.235574 0-15.99183-3.180936-21.852596-9.019915-5.838979-5.838979-9.041702-13.617021-9.041702-21.874383s3.202723-16.013617 9.041702-21.874383l28.933447-28.933447c-12.309787-29.761362-5.642894-64.969532 17.516936-88.129362L572.067404 265.368511l-22.070468-22.048681-157.848511 157.826723c-2.178723 2.156936-4.989277 3.268085-7.821617 3.268085s-5.664681-1.132936-7.79983-3.268085c-4.313872-4.313872-4.313872-11.351149 0-15.665021l165.670128-165.670128c4.292085-4.313872 11.329362-4.313872 15.665021 0l29.848511 29.870298 13.159489-13.115915c15.251064-15.294638 35.556766-23.704511 57.169702-23.704511 21.591149 0 41.875064 8.409872 57.147915 23.704511 15.272851 15.251064 23.682723 35.578553 23.682723 57.147915C738.848681 315.370213 730.438809 335.63234 715.165957 350.883404z" p-id="33163" data-spm-anchor-id="a313x.7781069.0.i64" class="selected" fill="#aaaaaa"></path><path d="M658.018043 235.040681c-15.708596 0-30.436766 6.100426-41.526468 17.190128l-49.892766 49.914553 83.074723 83.031149 49.870979-49.892766c11.089702-11.089702 17.190128-25.817872 17.190128-41.504681 0-15.686809-6.100426-30.414979-17.190128-41.526468C688.433021 241.119319 673.683064 235.040681 658.018043 235.040681z" p-id="33164" data-spm-anchor-id="a313x.7781069.0.i63" class="" fill="#2e2e2e"></path></svg>