<?xml version="1.0" standalone="no"?><!DOCTYPE svg PUBLIC "-//W3C//DTD SVG 1.1//EN" "http://www.w3.org/Graphics/SVG/1.1/DTD/svg11.dtd"><svg t="1640162827508" class="icon" viewBox="0 0 1024 1024" version="1.1" xmlns="http://www.w3.org/2000/svg" p-id="2694" xmlns:xlink="http://www.w3.org/1999/xlink" width="200" height="200"><defs><style type="text/css"></style></defs><path d="M174.08 940.8a32 32 0 0 1-22.4-54.4l704-704a32 32 0 0 1 45.44 0 32 32 0 0 1 0 44.8l-704 704a32.64 32.64 0 0 1-23.04 9.6z" p-id="2695" fill="#2e2e2e"></path><path d="M878.08 940.8a31.36 31.36 0 0 1-22.4-9.6l-704-704a30.72 30.72 0 0 1 0-44.8 32 32 0 0 1 45.44 0l704 704a32 32 0 0 1 0 44.8 32.64 32.64 0 0 1-23.04 9.6z" p-id="2696" fill="#2e2e2e"></path></svg>