<svg id="SvgjsSvg1204" width="604.5" height="648" xmlns="http://www.w3.org/2000/svg" version="1.1" xmlns:xlink="http://www.w3.org/1999/xlink" xmlns:svgjs="http://svgjs.com/svgjs"><defs id="SvgjsDefs1205"><marker id="SvgjsMarker1220" markerWidth="14" markerHeight="10" refX="10" refY="5" viewBox="0 0 14 10" orient="auto" markerUnits="userSpaceOnUse" stroke-dasharray="0,0"><path id="SvgjsPath1221" d="M0,0 L14,5 L0,10 L0,0" fill="#323232" stroke="#323232" stroke-width="1"></path></marker><marker id="SvgjsMarker1240" markerWidth="14" markerHeight="10" refX="10" refY="5" viewBox="0 0 14 10" orient="auto" markerUnits="userSpaceOnUse" stroke-dasharray="0,0"><path id="SvgjsPath1241" d="M0,0 L14,5 L0,10 L0,0" fill="#323232" stroke="#323232" stroke-width="1"></path></marker><marker id="SvgjsMarker1248" markerWidth="14" markerHeight="10" refX="10" refY="5" viewBox="0 0 14 10" orient="auto" markerUnits="userSpaceOnUse" stroke-dasharray="0,0"><path id="SvgjsPath1249" d="M0,0 L14,5 L0,10 L0,0" fill="#323232" stroke="#323232" stroke-width="1"></path></marker><marker id="SvgjsMarker1256" markerWidth="14" markerHeight="10" refX="10" refY="5" viewBox="0 0 14 10" orient="auto" markerUnits="userSpaceOnUse" stroke-dasharray="0,0"><path id="SvgjsPath1257" d="M0,0 L14,5 L0,10 L0,0" fill="#323232" stroke="#323232" stroke-width="1"></path></marker><marker id="SvgjsMarker1264" markerWidth="14" markerHeight="10" refX="10" refY="5" viewBox="0 0 14 10" orient="auto" markerUnits="userSpaceOnUse" stroke-dasharray="0,0"><path id="SvgjsPath1265" d="M0,0 L14,5 L0,10 L0,0" fill="#323232" stroke="#323232" stroke-width="1"></path></marker><marker id="SvgjsMarker1278" markerWidth="14" markerHeight="10" refX="10" refY="5" viewBox="0 0 14 10" orient="auto" markerUnits="userSpaceOnUse" stroke-dasharray="0,0"><path id="SvgjsPath1279" d="M0,0 L14,5 L0,10 L0,0" fill="#323232" stroke="#323232" stroke-width="1"></path></marker><marker id="SvgjsMarker1288" markerWidth="14" markerHeight="10" refX="10" refY="5" viewBox="0 0 14 10" orient="auto" markerUnits="userSpaceOnUse" stroke-dasharray="0,0"><path id="SvgjsPath1289" d="M0,0 L14,5 L0,10 L0,0" fill="#323232" stroke="#323232" stroke-width="1"></path></marker><marker id="SvgjsMarker1298" markerWidth="14" markerHeight="10" refX="10" refY="5" viewBox="0 0 14 10" orient="auto" markerUnits="userSpaceOnUse" stroke-dasharray="0,0"><path id="SvgjsPath1299" d="M0,0 L14,5 L0,10 L0,0" fill="#323232" stroke="#323232" stroke-width="1"></path></marker><marker id="SvgjsMarker1308" markerWidth="14" markerHeight="10" refX="10" refY="5" viewBox="0 0 14 10" orient="auto" markerUnits="userSpaceOnUse" stroke-dasharray="0,0"><path id="SvgjsPath1309" d="M0,0 L14,5 L0,10 L0,0" fill="#323232" stroke="#323232" stroke-width="1"></path></marker><marker id="SvgjsMarker1312" markerWidth="14" markerHeight="10" refX="10" refY="5" viewBox="0 0 14 10" orient="auto" markerUnits="userSpaceOnUse" stroke-dasharray="0,0"><path id="SvgjsPath1313" d="M0,0 L14,5 L0,10 L0,0" fill="#323232" stroke="#323232" stroke-width="1"></path></marker><marker id="SvgjsMarker1334" markerWidth="14" markerHeight="10" refX="10" refY="5" viewBox="0 0 14 10" orient="auto" markerUnits="userSpaceOnUse" stroke-dasharray="0,0"><path id="SvgjsPath1335" d="M0,0 L14,5 L0,10 L0,0" fill="#323232" stroke="#323232" stroke-width="1"></path></marker><marker id="SvgjsMarker1342" markerWidth="14" markerHeight="10" refX="10" refY="5" viewBox="0 0 14 10" orient="auto" markerUnits="userSpaceOnUse" stroke-dasharray="0,0"><path id="SvgjsPath1343" d="M0,0 L14,5 L0,10 L0,0" fill="#323232" stroke="#323232" stroke-width="1"></path></marker><marker id="SvgjsMarker1350" markerWidth="14" markerHeight="10" refX="10" refY="5" viewBox="0 0 14 10" orient="auto" markerUnits="userSpaceOnUse" stroke-dasharray="0,0"><path id="SvgjsPath1351" d="M0,0 L14,5 L0,10 L0,0" fill="#323232" stroke="#323232" stroke-width="1"></path></marker><marker id="SvgjsMarker1358" markerWidth="14" markerHeight="10" refX="10" refY="5" viewBox="0 0 14 10" orient="auto" markerUnits="userSpaceOnUse" stroke-dasharray="0,0"><path id="SvgjsPath1359" d="M0,0 L14,5 L0,10 L0,0" fill="#323232" stroke="#323232" stroke-width="1"></path></marker><marker id="SvgjsMarker1372" markerWidth="14" markerHeight="10" refX="10" refY="5" viewBox="0 0 14 10" orient="auto" markerUnits="userSpaceOnUse" stroke-dasharray="0,0"><path id="SvgjsPath1373" d="M0,0 L14,5 L0,10 L0,0" fill="#323232" stroke="#323232" stroke-width="1"></path></marker><marker id="SvgjsMarker1382" markerWidth="14" markerHeight="10" refX="10" refY="5" viewBox="0 0 14 10" orient="auto" markerUnits="userSpaceOnUse" stroke-dasharray="0,0"><path id="SvgjsPath1383" d="M0,0 L14,5 L0,10 L0,0" fill="#323232" stroke="#323232" stroke-width="1"></path></marker><marker id="SvgjsMarker1392" markerWidth="14" markerHeight="10" refX="10" refY="5" viewBox="0 0 14 10" orient="auto" markerUnits="userSpaceOnUse" stroke-dasharray="0,0"><path id="SvgjsPath1393" d="M0,0 L14,5 L0,10 L0,0" fill="#323232" stroke="#323232" stroke-width="1"></path></marker><marker id="SvgjsMarker1396" markerWidth="14" markerHeight="10" refX="10" refY="5" viewBox="0 0 14 10" orient="auto" markerUnits="userSpaceOnUse" stroke-dasharray="0,0"><path id="SvgjsPath1397" d="M0,0 L14,5 L0,10 L0,0" fill="#323232" stroke="#323232" stroke-width="1"></path></marker><marker id="SvgjsMarker1400" markerWidth="14" markerHeight="10" refX="10" refY="5" viewBox="0 0 14 10" orient="auto" markerUnits="userSpaceOnUse" stroke-dasharray="0,0"><path id="SvgjsPath1401" d="M0,0 L14,5 L0,10 L0,0" fill="#323232" stroke="#323232" stroke-width="1"></path></marker></defs><g id="SvgjsG1206" transform="translate(220.5,25)"><path id="SvgjsPath1207" d="M 0 0L 119 0L 119 30L 0 30Z" stroke="rgba(50,50,50,1)" stroke-width="2" fill-opacity="1" fill="#ffffff"></path><g id="SvgjsG1208"><text id="SvgjsText1209" font-family="微软雅黑" text-anchor="middle" font-size="13px" width="99px" fill="#323232" font-weight="400" align="middle" lineHeight="125%" anchor="middle" family="微软雅黑" size="13px" weight="400" font-style="" opacity="1" y="4.375" transform="rotate(0)"><tspan id="SvgjsTspan1210" dy="16" x="59.5"><tspan id="SvgjsTspan1211" style="text-decoration:;">教师进入客户端</tspan></tspan></text></g></g><g id="SvgjsG1212" transform="translate(234.5,144)"><path id="SvgjsPath1213" d="M 0 0L 91 0L 91 30L 0 30Z" stroke="rgba(50,50,50,1)" stroke-width="2" fill-opacity="1" fill="#ffffff"></path><g id="SvgjsG1214"><text id="SvgjsText1215" font-family="微软雅黑" text-anchor="middle" font-size="13px" width="71px" fill="#323232" font-weight="400" align="middle" lineHeight="125%" anchor="middle" family="微软雅黑" size="13px" weight="400" font-style="" opacity="1" y="4.375" transform="rotate(0)"><tspan id="SvgjsTspan1216" dy="16" x="45.5"><tspan id="SvgjsTspan1217" style="text-decoration:;">用户登录</tspan></tspan></text></g></g><g id="SvgjsG1218"><path id="SvgjsPath1219" d="M280 56L280 99.5L280 99.5L280 140.4000000000001" stroke="#323232" stroke-width="2" fill="none" marker-end="url(#SvgjsMarker1220)"></path><rect id="SvgjsRect1222" width="91" height="16" x="234" y="102.625" fill="#ffffff"></rect><text id="SvgjsText1223" font-family="微软雅黑" text-anchor="middle" font-size="13px" width="91px" fill="#323232" font-weight="400" align="top" lineHeight="16px" anchor="middle" family="微软雅黑" size="13px" weight="400" font-style="" opacity="1" y="100" transform="rotate(0)"><tspan id="SvgjsTspan1224" dy="16" x="279.5"><tspan id="SvgjsTspan1225" style="text-decoration:;">已有账号和密码</tspan></tspan></text></g><g id="SvgjsG1226" transform="translate(25,69)"><path id="SvgjsPath1227" d="M 0 0L 75 0L 75 30L 0 30Z" stroke="rgba(50,50,50,1)" stroke-width="2" fill-opacity="1" fill="#ffffff"></path><g id="SvgjsG1228"><text id="SvgjsText1229" font-family="微软雅黑" text-anchor="middle" font-size="13px" width="55px" fill="#323232" font-weight="400" align="middle" lineHeight="125%" anchor="middle" family="微软雅黑" size="13px" weight="400" font-style="" opacity="1" y="4.375" transform="rotate(0)"><tspan id="SvgjsTspan1230" dy="16" x="37.5"><tspan id="SvgjsTspan1231" style="text-decoration:;">用户注册</tspan></tspan></text></g></g><g id="SvgjsG1232" transform="translate(460,69)"><path id="SvgjsPath1233" d="M 0 0L 75 0L 75 30L 0 30Z" stroke="rgba(50,50,50,1)" stroke-width="2" fill-opacity="1" fill="#ffffff"></path><g id="SvgjsG1234"><text id="SvgjsText1235" font-family="微软雅黑" text-anchor="middle" font-size="13px" width="55px" fill="#323232" font-weight="400" align="middle" lineHeight="125%" anchor="middle" family="微软雅黑" size="13px" weight="400" font-style="" opacity="1" y="4.375" transform="rotate(0)"><tspan id="SvgjsTspan1236" dy="16" x="37.5"><tspan id="SvgjsTspan1237" style="text-decoration:;">找回密码</tspan></tspan></text></g></g><g id="SvgjsG1238"><path id="SvgjsPath1239" d="M279 84L369.5 84L369.5 84L456.4 84" stroke="#323232" stroke-width="2" fill="none" marker-end="url(#SvgjsMarker1240)"></path><rect id="SvgjsRect1242" width="52" height="16" x="333.45000000000005" y="74.5" fill="#ffffff"></rect><text id="SvgjsText1243" font-family="微软雅黑" text-anchor="middle" font-size="13px" width="52px" fill="#323232" font-weight="400" align="top" lineHeight="16px" anchor="middle" family="微软雅黑" size="13px" weight="400" font-style="" opacity="1" y="71.875" transform="rotate(0)"><tspan id="SvgjsTspan1244" dy="16" x="359.45000000000005"><tspan id="SvgjsTspan1245" style="text-decoration:;">忘记密码</tspan></tspan></text></g><g id="SvgjsG1246"><path id="SvgjsPath1247" d="M278 84L189 84L189 84L103.60000000000002 84" stroke="#323232" stroke-width="2" fill="none" marker-end="url(#SvgjsMarker1248)"></path><rect id="SvgjsRect1250" width="52" height="16" x="170.89999999999998" y="74.5" fill="#ffffff"></rect><text id="SvgjsText1251" font-family="微软雅黑" text-anchor="middle" font-size="13px" width="52px" fill="#323232" font-weight="400" align="top" lineHeight="16px" anchor="middle" family="微软雅黑" size="13px" weight="400" font-style="" opacity="1" y="71.875" transform="rotate(0)"><tspan id="SvgjsTspan1252" dy="16" x="196.89999999999998"><tspan id="SvgjsTspan1253" style="text-decoration:;">没有账号</tspan></tspan></text></g><g id="SvgjsG1254"><path id="SvgjsPath1255" d="M62.5 100L62.5 159L230.89999999999998 159" stroke="#323232" stroke-width="2" fill="none" marker-end="url(#SvgjsMarker1256)"></path><rect id="SvgjsRect1258" width="91" height="16" x="102.5" y="150" fill="#ffffff"></rect><text id="SvgjsText1259" font-family="微软雅黑" text-anchor="middle" font-size="13px" width="91px" fill="#323232" font-weight="400" align="top" lineHeight="16px" anchor="middle" family="微软雅黑" size="13px" weight="400" font-style="" opacity="1" y="147.375" transform="rotate(0)"><tspan id="SvgjsTspan1260" dy="16" x="148"><tspan id="SvgjsTspan1261" style="text-decoration:;">输入邮箱验证码</tspan></tspan></text></g><g id="SvgjsG1262"><path id="SvgjsPath1263" d="M497.5 100L497.5 159L329.1 159" stroke="#323232" stroke-width="2" fill="none" marker-end="url(#SvgjsMarker1264)"></path><rect id="SvgjsRect1266" width="91" height="16" x="365.5" y="150" fill="#ffffff"></rect><text id="SvgjsText1267" font-family="微软雅黑" text-anchor="middle" font-size="13px" width="91px" fill="#323232" font-weight="400" align="top" lineHeight="16px" anchor="middle" family="微软雅黑" size="13px" weight="400" font-style="" opacity="1" y="147.375" transform="rotate(0)"><tspan id="SvgjsTspan1268" dy="16" x="411"><tspan id="SvgjsTspan1269" style="text-decoration:;">输入邮箱验证码</tspan></tspan></text></g><g id="SvgjsG1270" transform="translate(234.5,205)"><path id="SvgjsPath1271" d="M 0 0L 91 0L 91 30L 0 30Z" stroke="rgba(50,50,50,1)" stroke-width="2" fill-opacity="1" fill="#ffffff"></path><g id="SvgjsG1272"><text id="SvgjsText1273" font-family="微软雅黑" text-anchor="middle" font-size="13px" width="71px" fill="#323232" font-weight="400" align="middle" lineHeight="125%" anchor="middle" family="微软雅黑" size="13px" weight="400" font-style="" opacity="1" y="4.375" transform="rotate(0)"><tspan id="SvgjsTspan1274" dy="16" x="45.5"><tspan id="SvgjsTspan1275" style="text-decoration:;">创建试卷</tspan></tspan></text></g></g><g id="SvgjsG1276"><path id="SvgjsPath1277" d="M280 175L280 188.5L280 188.5L280 201.4000000000001" stroke="#323232" stroke-width="2" fill="none" marker-end="url(#SvgjsMarker1278)"></path></g><g id="SvgjsG1280" transform="translate(234.5,295)"><path id="SvgjsPath1281" d="M 0 0L 91 0L 91 30L 0 30Z" stroke="rgba(50,50,50,1)" stroke-width="2" fill-opacity="1" fill="#ffffff"></path><g id="SvgjsG1282"><text id="SvgjsText1283" font-family="微软雅黑" text-anchor="middle" font-size="13px" width="71px" fill="#323232" font-weight="400" align="middle" lineHeight="125%" anchor="middle" family="微软雅黑" size="13px" weight="400" font-style="" opacity="1" y="4.375" transform="rotate(0)"><tspan id="SvgjsTspan1284" dy="16" x="45.5"><tspan id="SvgjsTspan1285" style="text-decoration:;">编辑试卷</tspan></tspan></text></g></g><g id="SvgjsG1286"><path id="SvgjsPath1287" d="M280 236L280 264L280 264L280 291.4000000000001" stroke="#323232" stroke-width="2" fill="none" marker-end="url(#SvgjsMarker1288)"></path></g><g id="SvgjsG1290" transform="translate(234.5,355)"><path id="SvgjsPath1291" d="M 0 0L 91 0L 91 30L 0 30Z" stroke="rgba(50,50,50,1)" stroke-width="2" fill-opacity="1" fill="#ffffff"></path><g id="SvgjsG1292"><text id="SvgjsText1293" font-family="微软雅黑" text-anchor="middle" font-size="13px" width="71px" fill="#323232" font-weight="400" align="middle" lineHeight="125%" anchor="middle" family="微软雅黑" size="13px" weight="400" font-style="" opacity="1" y="4.375" transform="rotate(0)"><tspan id="SvgjsTspan1294" dy="16" x="45.5"><tspan id="SvgjsTspan1295" style="text-decoration:;">发布试卷</tspan></tspan></text></g></g><g id="SvgjsG1296"><path id="SvgjsPath1297" d="M280 326L280 340L280 340L280 351.4000000000001" stroke="#323232" stroke-width="2" fill="none" marker-end="url(#SvgjsMarker1298)"></path></g><g id="SvgjsG1300" transform="translate(25,247)"><path id="SvgjsPath1301" d="M 0 0L 75 0L 75 30L 0 30Z" stroke="rgba(50,50,50,1)" stroke-width="2" fill-opacity="1" fill="#ffffff"></path><g id="SvgjsG1302"><text id="SvgjsText1303" font-family="微软雅黑" text-anchor="middle" font-size="13px" width="55px" fill="#323232" font-weight="400" align="middle" lineHeight="125%" anchor="middle" family="微软雅黑" size="13px" weight="400" font-style="" opacity="1" y="4.375" transform="rotate(0)"><tspan id="SvgjsTspan1304" dy="16" x="37.5"><tspan id="SvgjsTspan1305" style="text-decoration:;">检索题目</tspan></tspan></text></g></g><g id="SvgjsG1306"><path id="SvgjsPath1307" d="M62.5 278L62.5 310L230.89999999999998 310" stroke="#323232" stroke-width="2" fill="none" marker-end="url(#SvgjsMarker1308)"></path></g><g id="SvgjsG1310"><path id="SvgjsPath1311" d="M278 262L189 262L189 262L103.60000000000002 262" stroke="#323232" stroke-width="2" fill="none" marker-end="url(#SvgjsMarker1312)"></path></g><g id="SvgjsG1314" transform="translate(460.5,295)"><path id="SvgjsPath1315" d="M 0 0L 119 0L 119 30L 0 30Z" stroke="rgba(50,50,50,1)" stroke-width="2" fill-opacity="1" fill="#ffffff"></path><g id="SvgjsG1316"><text id="SvgjsText1317" font-family="微软雅黑" text-anchor="middle" font-size="13px" width="99px" fill="#323232" font-weight="400" align="middle" lineHeight="125%" anchor="middle" family="微软雅黑" size="13px" weight="400" font-style="" opacity="1" y="4.375" transform="rotate(0)"><tspan id="SvgjsTspan1318" dy="16" x="59.5"><tspan id="SvgjsTspan1319" style="text-decoration:;">学生打开浏览器</tspan></tspan></text></g></g><g id="SvgjsG1320" transform="translate(234.5,474)"><path id="SvgjsPath1321" d="M 0 0L 91 0L 91 30L 0 30Z" stroke="rgba(50,50,50,1)" stroke-width="2" fill-opacity="1" fill="#ffffff"></path><g id="SvgjsG1322"><text id="SvgjsText1323" font-family="微软雅黑" text-anchor="middle" font-size="13px" width="71px" fill="#323232" font-weight="400" align="middle" lineHeight="125%" anchor="middle" family="微软雅黑" size="13px" weight="400" font-style="" opacity="1" y="4.375" transform="rotate(0)"><tspan id="SvgjsTspan1324" dy="16" x="45.5"><tspan id="SvgjsTspan1325" style="text-decoration:;">获得分数</tspan></tspan></text></g></g><g id="SvgjsG1326" transform="translate(474.5,474)"><path id="SvgjsPath1327" d="M 0 0L 91 0L 91 30L 0 30Z" stroke="rgba(50,50,50,1)" stroke-width="2" fill-opacity="1" fill="#ffffff"></path><g id="SvgjsG1328"><text id="SvgjsText1329" font-family="微软雅黑" text-anchor="middle" font-size="13px" width="71px" fill="#323232" font-weight="400" align="middle" lineHeight="125%" anchor="middle" family="微软雅黑" size="13px" weight="400" font-style="" opacity="1" y="4.375" transform="rotate(0)"><tspan id="SvgjsTspan1330" dy="16" x="45.5"><tspan id="SvgjsTspan1331" style="text-decoration:;">开始作答</tspan></tspan></text></g></g><g id="SvgjsG1332"><path id="SvgjsPath1333" d="M520 326L520 399.5L520 399.5L520 470.4000000000001" stroke="#323232" stroke-width="2" fill="none" marker-end="url(#SvgjsMarker1334)"></path><rect id="SvgjsRect1336" width="117" height="16" x="461.5" y="417.3000000000002" fill="#ffffff"></rect><text id="SvgjsText1337" font-family="微软雅黑" text-anchor="middle" font-size="13px" width="117px" fill="#323232" font-weight="400" align="top" lineHeight="16px" anchor="middle" family="微软雅黑" size="13px" weight="400" font-style="" opacity="1" y="414.6750000000002" transform="rotate(0)"><tspan id="SvgjsTspan1338" dy="16" x="520"><tspan id="SvgjsTspan1339" style="text-decoration:;">获取并输入试卷链接</tspan></tspan></text></g><g id="SvgjsG1340"><path id="SvgjsPath1341" d="M326.5 369.5L420.5 369.5L420.5 369.5L516 369.5" stroke-dasharray="3,3" stroke="#323232" stroke-width="2" fill="none" marker-end="url(#SvgjsMarker1342)"></path><rect id="SvgjsRect1344" width="78" height="16" x="382.25" y="361.5" fill="#ffffff"></rect><text id="SvgjsText1345" font-family="微软雅黑" text-anchor="middle" font-size="13px" width="78px" fill="#323232" font-weight="400" align="top" lineHeight="16px" anchor="middle" family="微软雅黑" size="13px" weight="400" font-style="" opacity="1" y="358.875" transform="rotate(0)"><tspan id="SvgjsTspan1346" dy="16" x="421.25"><tspan id="SvgjsTspan1347" style="text-decoration:;">分享试卷链接</tspan></tspan></text></g><g id="SvgjsG1348"><path id="SvgjsPath1349" d="M473.5 489L400 489L400 489L329.1 489" stroke-dasharray="3,3" stroke="#323232" stroke-width="2" fill="none" marker-end="url(#SvgjsMarker1350)"></path><rect id="SvgjsRect1352" width="26" height="16" x="405" y="481" fill="#ffffff"></rect><text id="SvgjsText1353" font-family="微软雅黑" text-anchor="middle" font-size="13px" width="26px" fill="#323232" font-weight="400" align="top" lineHeight="16px" anchor="middle" family="微软雅黑" size="13px" weight="400" font-style="" opacity="1" y="478.375" transform="rotate(0)"><tspan id="SvgjsTspan1354" dy="16" x="418"><tspan id="SvgjsTspan1355" style="text-decoration:;">提交</tspan></tspan></text></g><g id="SvgjsG1356"><path id="SvgjsPath1357" d="M280 386L280 429.5L280 429.5L280 470.4000000000001" stroke-dasharray="3,3" stroke="#323232" stroke-width="2" fill="none" marker-end="url(#SvgjsMarker1358)"></path><rect id="SvgjsRect1360" width="78" height="16" x="241" y="420.20000000000005" fill="#ffffff"></rect><text id="SvgjsText1361" font-family="微软雅黑" text-anchor="middle" font-size="13px" width="78px" fill="#323232" font-weight="400" align="top" lineHeight="16px" anchor="middle" family="微软雅黑" size="13px" weight="400" font-style="" opacity="1" y="417.57500000000005" transform="rotate(0)"><tspan id="SvgjsTspan1362" dy="16" x="280"><tspan id="SvgjsTspan1363" style="text-decoration:;">等待学生作答</tspan></tspan></text></g><g id="SvgjsG1364" transform="translate(190,593)"><path id="SvgjsPath1365" d="M 0 0L 180 0L 180 30L 0 30Z" stroke="rgba(50,50,50,1)" stroke-width="2" fill-opacity="1" fill="#ffffff"></path><g id="SvgjsG1366"><text id="SvgjsText1367" font-family="微软雅黑" text-anchor="middle" font-size="13px" width="160px" fill="#323232" font-weight="400" align="middle" lineHeight="125%" anchor="middle" family="微软雅黑" size="13px" weight="400" font-style="" opacity="1" y="4.375" transform="rotate(0)"><tspan id="SvgjsTspan1368" dy="16" x="90"><tspan id="SvgjsTspan1369" style="text-decoration:;">提取口语音频和写作文本</tspan></tspan></text></g></g><g id="SvgjsG1370"><path id="SvgjsPath1371" d="M280 505L280 548.5L280 548.5L280 589.4000000000001" stroke="#323232" stroke-width="2" fill="none" marker-end="url(#SvgjsMarker1372)"></path></g><g id="SvgjsG1374" transform="translate(25,355.5)"><path id="SvgjsPath1375" d="M 0 0L 105 0L 105 29L 0 29Z" stroke="rgba(50,50,50,1)" stroke-width="2" fill-opacity="1" fill="#ffffff"></path><g id="SvgjsG1376"><text id="SvgjsText1377" font-family="微软雅黑" text-anchor="middle" font-size="13px" width="85px" fill="#323232" font-weight="400" align="middle" lineHeight="125%" anchor="middle" family="微软雅黑" size="13px" weight="400" font-style="" opacity="1" y="3.875" transform="rotate(0)"><tspan id="SvgjsTspan1378" dy="16" x="52.5"><tspan id="SvgjsTspan1379" style="text-decoration:;">暂停/恢复试卷</tspan></tspan></text></g></g><g id="SvgjsG1380"><path id="SvgjsPath1381" d="M233.5 370L182.25 370L182.25 370L133.60000000000002 370" stroke="#323232" stroke-width="2" fill="none" marker-end="url(#SvgjsMarker1382)"></path></g><g id="SvgjsG1384" transform="translate(476.75,593)"><path id="SvgjsPath1385" d="M 0 0L 86.5 0L 86.5 30L 0 30Z" stroke="rgba(50,50,50,1)" stroke-width="2" fill-opacity="1" fill="#ffffff"></path><g id="SvgjsG1386"><text id="SvgjsText1387" font-family="微软雅黑" text-anchor="middle" font-size="13px" width="67px" fill="#323232" font-weight="400" align="middle" lineHeight="125%" anchor="middle" family="微软雅黑" size="13px" weight="400" font-style="" opacity="1" y="4.375" transform="rotate(0)"><tspan id="SvgjsTspan1388" dy="16" x="43.5"><tspan id="SvgjsTspan1389" style="text-decoration:;">掉线并恢复</tspan></tspan></text></g></g><g id="SvgjsG1390"><path id="SvgjsPath1391" d="M520 505L520 548.5L520 548.5L520 589.4000000000001" stroke="#323232" stroke-width="2" fill="none" marker-end="url(#SvgjsMarker1392)"></path></g><g id="SvgjsG1394"><path id="SvgjsPath1395" d="M77.5 385.5L77.5 432L234.5 432" stroke="#323232" stroke-width="2" fill="none" marker-end="url(#SvgjsMarker1396)"></path></g><g id="SvgjsG1398"><path id="SvgjsPath1399" d="M475.75 608L417 608L417 504" stroke="#323232" stroke-width="2" fill="none" marker-end="url(#SvgjsMarker1400)"></path><rect id="SvgjsRect1402" width="52" height="16" x="391" y="553" fill="#ffffff"></rect><text id="SvgjsText1403" font-family="微软雅黑" text-anchor="middle" font-size="13px" width="52px" fill="#323232" font-weight="400" align="top" lineHeight="16px" anchor="middle" family="微软雅黑" size="13px" weight="400" font-style="" opacity="1" y="550.375" transform="rotate(0)"><tspan id="SvgjsTspan1404" dy="16" x="417"><tspan id="SvgjsTspan1405" style="text-decoration:;">继续作答</tspan></tspan></text></g></svg>