<svg id="SvgjsSvg1068" width="329" height="229" xmlns="http://www.w3.org/2000/svg" version="1.1" xmlns:xlink="http://www.w3.org/1999/xlink" xmlns:svgjs="http://svgjs.com/svgjs"><defs id="SvgjsDefs1069"><marker id="SvgjsMarker1094" markerWidth="14" markerHeight="10" refX="10" refY="5" viewBox="0 0 14 10" orient="auto" markerUnits="userSpaceOnUse" stroke-dasharray="0,0"><path id="SvgjsPath1095" d="M0,0 L14,5 L0,10 L0,0" fill="#323232" stroke="#323232" stroke-width="1"></path></marker><marker id="SvgjsMarker1102" markerWidth="14" markerHeight="10" refX="10" refY="5" viewBox="0 0 14 10" orient="auto" markerUnits="userSpaceOnUse" stroke-dasharray="0,0"><path id="SvgjsPath1103" d="M0,0 L14,5 L0,10 L0,0" fill="#323232" stroke="#323232" stroke-width="1"></path></marker><marker id="SvgjsMarker1110" markerWidth="14" markerHeight="10" refX="10" refY="5" viewBox="0 0 14 10" orient="auto" markerUnits="userSpaceOnUse" stroke-dasharray="0,0"><path id="SvgjsPath1111" d="M0,0 L14,5 L0,10 L0,0" fill="#323232" stroke="#323232" stroke-width="1"></path></marker><marker id="SvgjsMarker1118" markerWidth="14" markerHeight="10" refX="10" refY="5" viewBox="0 0 14 10" orient="auto" markerUnits="userSpaceOnUse" stroke-dasharray="0,0"><path id="SvgjsPath1119" d="M0,0 L14,5 L0,10 L0,0" fill="#323232" stroke="#323232" stroke-width="1"></path></marker><marker id="SvgjsMarker1132" markerWidth="14" markerHeight="10" refX="10" refY="5" viewBox="0 0 14 10" orient="auto" markerUnits="userSpaceOnUse" stroke-dasharray="0,0"><path id="SvgjsPath1133" d="M0,0 L14,5 L0,10 L0,0" fill="#323232" stroke="#323232" stroke-width="1"></path></marker><marker id="SvgjsMarker1140" markerWidth="14" markerHeight="10" refX="10" refY="5" viewBox="0 0 14 10" orient="auto" markerUnits="userSpaceOnUse" stroke-dasharray="0,0"><path id="SvgjsPath1141" d="M0,0 L14,5 L0,10 L0,0" fill="#323232" stroke="#323232" stroke-width="1"></path></marker></defs><g id="SvgjsG1070" transform="translate(146,54)"><path id="SvgjsPath1071" d="M 0 0L 37 0L 37 120L 0 120Z" stroke="rgba(50,50,50,1)" stroke-width="2" fill-opacity="1" fill="#ffffff"></path><g id="SvgjsG1072"><text id="SvgjsText1073" font-family="微软雅黑" text-anchor="middle" font-size="13px" width="17px" fill="#323232" font-weight="400" align="middle" lineHeight="125%" anchor="middle" family="微软雅黑" size="13px" weight="400" font-style="" opacity="1" y="40.875" transform="rotate(0)"><tspan id="SvgjsTspan1074" dy="16" x="18.5"><tspan id="SvgjsTspan1075" style="text-decoration:;">试</tspan></tspan><tspan id="SvgjsTspan1076" dy="16" x="18.5"><tspan id="SvgjsTspan1077" style="text-decoration:;">卷</tspan></tspan></text></g></g><g id="SvgjsG1078" transform="translate(267,54)"><path id="SvgjsPath1079" d="M 0 0L 37 0L 37 120L 0 120Z" stroke="rgba(50,50,50,1)" stroke-width="2" fill-opacity="1" fill="#ffffff"></path><g id="SvgjsG1080"><text id="SvgjsText1081" font-family="微软雅黑" text-anchor="middle" font-size="13px" width="17px" fill="#323232" font-weight="400" align="middle" lineHeight="125%" anchor="middle" family="微软雅黑" size="13px" weight="400" font-style="" opacity="1" y="32.875" transform="rotate(0)"><tspan id="SvgjsTspan1082" dy="16" x="18.5"><tspan id="SvgjsTspan1083" style="text-decoration:;">数</tspan></tspan><tspan id="SvgjsTspan1084" dy="16" x="18.5"><tspan id="SvgjsTspan1085" style="text-decoration:;">据</tspan></tspan><tspan id="SvgjsTspan1086" dy="16" x="18.5"><tspan id="SvgjsTspan1087" style="text-decoration:;">库</tspan></tspan></text></g></g><g id="SvgjsG1088" transform="translate(25,54)"><path id="SvgjsPath1089" d="M 0 0L 36 0L 36 120L 0 120Z" stroke="rgba(50,50,50,1)" stroke-width="2" fill-opacity="1" fill="#ffffff"></path><g id="SvgjsG1090"><text id="SvgjsText1091" font-family="微软雅黑" text-anchor="middle" font-size="13px" width="16px" fill="#323232" font-weight="400" align="middle" lineHeight="125%" anchor="middle" family="微软雅黑" size="13px" weight="400" font-style="" opacity="1" y="49.375" transform="rotate(0)"></text></g></g><g id="SvgjsG1092"><path id="SvgjsPath1093" d="M184 114L225 114L225 114L263.4 114" stroke="#323232" stroke-width="2" fill="none" marker-end="url(#SvgjsMarker1094)"></path><rect id="SvgjsRect1096" width="26" height="16" x="203" y="106" fill="#ffffff"></rect><text id="SvgjsText1097" font-family="微软雅黑" text-anchor="middle" font-size="13px" width="26px" fill="#323232" font-weight="400" align="top" lineHeight="16px" anchor="middle" family="微软雅黑" size="13px" weight="400" font-style="" opacity="1" y="103.375" transform="rotate(0)"><tspan id="SvgjsTspan1098" dy="16" x="216"><tspan id="SvgjsTspan1099" style="text-decoration:;">提交</tspan></tspan></text></g><g id="SvgjsG1100"><path id="SvgjsPath1101" d="M218 122L218 122L218 204L43 204L43 177.60000000000002" stroke="#323232" stroke-width="2" fill="none" marker-end="url(#SvgjsMarker1102)"></path><rect id="SvgjsRect1104" width="26" height="16" x="91" y="196" fill="#ffffff"></rect><text id="SvgjsText1105" font-family="微软雅黑" text-anchor="middle" font-size="13px" width="26px" fill="#323232" font-weight="400" align="top" lineHeight="16px" anchor="middle" family="微软雅黑" size="13px" weight="400" font-style="" opacity="1" y="193.375" transform="rotate(0)"><tspan id="SvgjsTspan1106" dy="16" x="104"><tspan id="SvgjsTspan1107" style="text-decoration:;">清空</tspan></tspan></text></g><g id="SvgjsG1108"><path id="SvgjsPath1109" d="M145 114L103.5 114L103.5 114L64.60000000000002 114" stroke="#323232" stroke-width="2" fill="none" marker-end="url(#SvgjsMarker1110)"></path><rect id="SvgjsRect1112" width="26" height="16" x="92" y="106" fill="#ffffff"></rect><text id="SvgjsText1113" font-family="微软雅黑" text-anchor="middle" font-size="13px" width="26px" fill="#323232" font-weight="400" align="top" lineHeight="16px" anchor="middle" family="微软雅黑" size="13px" weight="400" font-style="" opacity="1" y="103.375" transform="rotate(0)"><tspan id="SvgjsTspan1114" dy="16" x="105"><tspan id="SvgjsTspan1115" style="text-decoration:;">作答</tspan></tspan></text></g><g id="SvgjsG1116"><path id="SvgjsPath1117" d="M61 81L103 81L103 81L142.39999999999998 81" stroke="#323232" stroke-width="2" fill="none" marker-end="url(#SvgjsMarker1118)"></path><rect id="SvgjsRect1120" width="26" height="16" x="88.69999999999999" y="73" fill="#ffffff"></rect><text id="SvgjsText1121" font-family="微软雅黑" text-anchor="middle" font-size="13px" width="26px" fill="#323232" font-weight="400" align="top" lineHeight="16px" anchor="middle" family="微软雅黑" size="13px" weight="400" font-style="" opacity="1" y="70.375" transform="rotate(0)"><tspan id="SvgjsTspan1122" dy="16" x="101.69999999999999"><tspan id="SvgjsTspan1123" style="text-decoration:;">恢复</tspan></tspan></text></g><g id="SvgjsG1124" transform="matrix(6.123233995736766e-17,1,-1,6.123233995736766e-17,55,55)"><path id="SvgjsPath1125" d="M 0 0L 120 0L 120 24L 0 24Z" stroke="none" fill="none"></path><g id="SvgjsG1126"><text id="SvgjsText1127" font-family="微软雅黑" text-anchor="middle" font-size="13px" width="120px" fill="#323232" font-weight="400" align="middle" lineHeight="125%" anchor="middle" family="微软雅黑" size="13px" weight="400" font-style="" opacity="1" y="1.375" transform="rotate(0)"><tspan id="SvgjsTspan1128" dy="16" x="60"><tspan id="SvgjsTspan1129" style="text-decoration:;">localStorage</tspan></tspan></text></g></g><g id="SvgjsG1130"><path id="SvgjsPath1131" d="M184 83L225 83L225 83L263.4 83" stroke="#323232" stroke-width="2" fill="none" marker-end="url(#SvgjsMarker1132)"></path><rect id="SvgjsRect1134" width="26" height="16" x="203" y="75" fill="#ffffff"></rect><text id="SvgjsText1135" font-family="微软雅黑" text-anchor="middle" font-size="13px" width="26px" fill="#323232" font-weight="400" align="top" lineHeight="16px" anchor="middle" family="微软雅黑" size="13px" weight="400" font-style="" opacity="1" y="72.375" transform="rotate(0)"><tspan id="SvgjsTspan1136" dy="16" x="216"><tspan id="SvgjsTspan1137" style="text-decoration:;">验证</tspan></tspan></text></g><g id="SvgjsG1138"><path id="SvgjsPath1139" d="M285.5 53L285.5 25L43 25L43 50.400000000000006" stroke="#323232" stroke-width="2" fill="none" marker-end="url(#SvgjsMarker1140)"></path></g></svg>